<svg width="65" height="65" viewBox="0 0 65 65" fill="none" xmlns="http://www.w3.org/2000/svg">
<rect x="0.5" y="0.5" width="64" height="64" rx="32" fill="white"/>
<path d="M40.5304 37.4698C40.2375 37.1769 39.7626 37.1769 39.4697 37.4698C39.1768 37.7626 39.1768 38.2375 39.4697 38.5304L40.5304 37.4698ZM43.4696 42.5304C43.7625 42.8233 44.2374 42.8233 44.5303 42.5304C44.8232 42.2375 44.8232 41.7626 44.5303 41.4697L43.4696 42.5304ZM39.4697 38.5304L43.4696 42.5304L44.5303 41.4697L40.5304 37.4698L39.4697 38.5304ZM32 38.25C27.4437 38.25 23.75 34.5563 23.75 30H22.25C22.25 35.3848 26.6152 39.75 32 39.75V38.25ZM40.25 30C40.25 34.5563 36.5563 38.25 32 38.25V39.75C37.3848 39.75 41.75 35.3848 41.75 30H40.25ZM32 21.75C36.5563 21.75 40.25 25.4437 40.25 30H41.75C41.75 24.6152 37.3848 20.25 32 20.25V21.75ZM32 20.25C26.6152 20.25 22.25 24.6152 22.25 30H23.75C23.75 25.4437 27.4437 21.75 32 21.75V20.25Z" fill="#3E3E33"/>
<rect x="0.5" y="0.5" width="64" height="64" rx="32" stroke="#E1E1E1"/>
</svg>
