<svg width="25" height="26" viewBox="0 0 25 26" fill="none" xmlns="http://www.w3.org/2000/svg">
<g clip-path="url(#clip0_15_51)">
<path fill-rule="evenodd" clip-rule="evenodd" d="M4.3269 13C4.3269 15.1676 5.18799 17.2465 6.72074 18.7792C8.25349 20.312 10.3323 21.1731 12.5 21.1731C14.6676 21.1731 16.7465 20.312 18.2792 18.7792C19.812 17.2465 20.6731 15.1676 20.6731 13C20.6731 10.8323 19.812 8.75349 18.2792 7.22074C16.7465 5.68799 14.6676 4.8269 12.5 4.8269C10.3323 4.8269 8.25349 5.68799 6.72074 7.22074C5.18799 8.75349 4.3269 10.8323 4.3269 13ZM19.7115 13C19.7115 14.9126 18.9517 16.7469 17.5993 18.0993C16.2469 19.4517 14.4126 20.2115 12.5 20.2115C10.5874 20.2115 8.75308 19.4517 7.40065 18.0993C6.04823 16.7469 5.28844 14.9126 5.28844 13C5.28844 11.0874 6.04823 9.25308 7.40065 7.90065C8.75308 6.54823 10.5874 5.78844 12.5 5.78844C14.4126 5.78844 16.2469 6.54823 17.5993 7.90065C18.9517 9.25308 19.7115 11.0874 19.7115 13Z" fill="black"/>
<path fill-rule="evenodd" clip-rule="evenodd" d="M9.13464 13C9.13464 17.2259 10.5212 20.6923 12.5 20.6923C14.4789 20.6923 15.8654 17.2259 15.8654 13C15.8654 8.77306 14.4789 5.30768 12.5 5.30768C10.5212 5.30768 9.13464 8.77306 9.13464 13ZM14.9039 13C14.9039 16.7394 13.7068 19.7308 12.5 19.7308C11.2933 19.7308 10.0962 16.7394 10.0962 13C10.0962 9.26056 11.2933 6.26922 12.5 6.26922C13.7068 6.26922 14.9039 9.26056 14.9039 13Z" fill="black"/>
<path d="M6.47595 8.49233L7.12018 7.77887C7.22306 7.87118 7.33268 7.96156 7.44999 8.04906C8.71729 8.99906 10.7173 9.57791 12.8971 9.57791C14.7558 9.57791 16.4904 9.15772 17.7577 8.43368C18.0497 8.26847 18.3256 8.07628 18.5817 7.85964L19.2067 8.59041C18.9202 8.8356 18.5952 9.06156 18.2356 9.26733C16.8154 10.0798 14.9163 10.5394 12.8971 10.5394C10.5221 10.5394 8.31825 9.90195 6.87306 8.81829C6.73574 8.71547 6.60323 8.60638 6.47595 8.49137V8.49233ZM6.47595 17.5193L7.12018 18.2308C7.22306 18.1385 7.33268 18.0481 7.44999 17.9616C8.71729 17.0116 10.7173 16.4327 12.8971 16.4327C14.7558 16.4327 16.4904 16.8519 17.7577 17.5769C18.0663 17.7539 18.3423 17.9462 18.5817 18.15L19.2067 17.4193C18.9049 17.1638 18.5797 16.9371 18.2356 16.7423C16.8154 15.9308 14.9163 15.4712 12.8971 15.4712C10.5221 15.4712 8.31825 16.1087 6.87306 17.1914C6.73268 17.2971 6.59999 17.4058 6.47595 17.5183V17.5193ZM4.80768 13.4808V12.5193H20.1923V13.4808H4.80768Z" fill="black"/>
<path fill-rule="evenodd" clip-rule="evenodd" d="M12.5 24.0577C18.6067 24.0577 23.5577 19.1067 23.5577 13C23.5577 6.89327 18.6067 1.94231 12.5 1.94231C6.39327 1.94231 1.44231 6.89327 1.44231 13C1.44231 19.1067 6.39327 24.0577 12.5 24.0577ZM12.5 25.0192C19.1385 25.0192 24.5192 19.6385 24.5192 13C24.5192 6.36154 19.1385 0.980774 12.5 0.980774C5.86154 0.980774 0.480774 6.36154 0.480774 13C0.480774 19.6385 5.86154 25.0192 12.5 25.0192Z" fill="black"/>
</g>
<defs>
<clipPath id="clip0_15_51">
<rect width="25" height="25" fill="white" transform="translate(0 0.5)"/>
</clipPath>
</defs>
</svg>
