<svg width="56" height="56" viewBox="0 0 56 56" fill="none" xmlns="http://www.w3.org/2000/svg">
<rect opacity="0.5" x="0.25" y="0.25" width="55.5" height="55.5" rx="7.75" stroke="#344437" stroke-width="0.5"/>
<path d="M33.6667 40V18.6667C33.6667 17.9594 33.3857 17.2811 32.8856 16.781C32.3855 16.281 31.7072 16 31 16H25.6667C24.9594 16 24.2811 16.281 23.781 16.781C23.281 17.2811 23 17.9594 23 18.6667V40M17.6667 21.3333H39C40.4728 21.3333 41.6667 22.5272 41.6667 24V37.3333C41.6667 38.8061 40.4728 40 39 40H17.6667C16.1939 40 15 38.8061 15 37.3333V24C15 22.5272 16.1939 21.3333 17.6667 21.3333Z" stroke="#2F3930" stroke-linecap="round" stroke-linejoin="round"/>
</svg>
