<svg width="56" height="56" viewBox="0 0 56 56" fill="none" xmlns="http://www.w3.org/2000/svg">
<rect opacity="0.5" x="0.25" y="0.25" width="55.5" height="55.5" rx="7.75" stroke="#344437" stroke-width="0.5"/>
<path d="M40.1428 16H35.5714L32.5085 31.3029C32.404 31.829 32.1178 32.3017 31.6999 32.6381C31.282 32.9744 30.7592 33.1531 30.2228 33.1429H19.1143C18.5779 33.1531 18.055 32.9744 17.6372 32.6381C17.2193 32.3017 16.933 31.829 16.8285 31.3029L15 21.7143H34.4285M29.8571 38.8571C29.8571 39.4883 30.3688 40 31 40C31.6311 40 32.1428 39.4883 32.1428 38.8571C32.1428 38.226 31.6311 37.7143 31 37.7143C30.3688 37.7143 29.8571 38.226 29.8571 38.8571ZM17.2857 38.8571C17.2857 39.4883 17.7974 40 18.4285 40C19.0597 40 19.5714 39.4883 19.5714 38.8571C19.5714 38.226 19.0597 37.7143 18.4285 37.7143C17.7974 37.7143 17.2857 38.226 17.2857 38.8571Z" stroke="#2F3930" stroke-linecap="round" stroke-linejoin="round"/>
</svg>
