<svg width="26" height="30" viewBox="0 0 26 30" fill="none" xmlns="http://www.w3.org/2000/svg">
<path d="M13 4.6C10.7722 4.6 8.63561 5.485 7.0603 7.0603C5.485 8.63561 4.6 10.7722 4.6 13V19C4.6 19.9548 4.22072 20.8705 3.54558 21.5456C2.87045 22.2207 1.95478 22.6 1 22.6H25C24.0452 22.6 23.1295 22.2207 22.4544 21.5456C21.7793 20.8705 21.4 19.9548 21.4 19V13C21.4 10.7722 20.515 8.63561 18.9397 7.0603C17.3644 5.485 15.2278 4.6 13 4.6ZM13 4.6V1M15.076 27.4C14.865 27.7637 14.5622 28.0656 14.1979 28.2754C13.8335 28.4853 13.4205 28.5957 13 28.5957C12.5795 28.5957 12.1665 28.4853 11.8021 28.2754C11.4378 28.0656 11.135 27.7637 10.924 27.4" stroke="#2F3930" stroke-linecap="round" stroke-linejoin="round"/>
</svg>
