<svg width="26" height="24" viewBox="0 0 26 24" fill="none" xmlns="http://www.w3.org/2000/svg">
<path d="M17.8 22.6V3.4C17.8 2.76348 17.5471 2.15303 17.0971 1.70294C16.647 1.25286 16.0365 1 15.4 1H10.6C9.96348 1 9.35303 1.25286 8.90294 1.70294C8.45286 2.15303 8.2 2.76348 8.2 3.4V22.6M3.4 5.8H22.6C23.9255 5.8 25 6.87452 25 8.2V20.2C25 21.5255 23.9255 22.6 22.6 22.6H3.4C2.07452 22.6 1 21.5255 1 20.2V8.2C1 6.87452 2.07452 5.8 3.4 5.8Z" stroke="#2F3930" stroke-linecap="round" stroke-linejoin="round"/>
</svg>
