<svg width="56" height="56" viewBox="0 0 56 56" fill="none" xmlns="http://www.w3.org/2000/svg">
<rect opacity="0.5" x="0.25" y="0.25" width="55.5" height="55.5" rx="7.75" stroke="#344437" stroke-width="0.5"/>
<path d="M28.4364 19.1309C26.4989 19.1309 24.6407 19.9006 23.2706 21.2706C21.9006 22.6407 21.1309 24.4989 21.1309 26.4364V31.6546C21.1309 32.485 20.8011 33.2813 20.2139 33.8685C19.6267 34.4556 18.8304 34.7855 18 34.7855H38.8728C38.0424 34.7855 37.246 34.4556 36.6589 33.8685C36.0717 33.2813 35.7419 32.485 35.7419 31.6546V26.4364C35.7419 24.4989 34.9722 22.6407 33.6021 21.2706C32.2321 19.9006 30.3739 19.1309 28.4364 19.1309ZM28.4364 19.1309V16M30.2419 38.9601C30.0584 39.2764 29.795 39.5389 29.4782 39.7214C29.1613 39.9039 28.8021 40 28.4364 40C28.0707 40 27.7115 39.9039 27.3946 39.7214C27.0777 39.5389 26.8144 39.2764 26.6309 38.9601" stroke="#2F3930" stroke-linecap="round" stroke-linejoin="round"/>
</svg>
