<svg width="24" height="18" viewBox="0 0 24 18" fill="none" xmlns="http://www.w3.org/2000/svg">
<path d="M15.6922 7.40314C15.5097 7.40314 15.3312 7.349 15.1794 7.24757C15.0276 7.14614 14.9093 7.00197 14.8394 6.83331C14.7696 6.66464 14.7513 6.47905 14.7869 6.3C14.8225 6.12094 14.9104 5.95647 15.0395 5.82737L17.156 3.71083L15.0395 1.59431C14.8664 1.4212 14.7692 1.18642 14.7692 0.941605C14.7692 0.696795 14.8664 0.462023 15.0395 0.288917C15.2126 0.11581 15.4474 0.0185547 15.6922 0.0185547C15.937 0.0185547 16.1718 0.11581 16.3449 0.288917L19.1141 3.05813C19.1999 3.14384 19.2679 3.2456 19.3143 3.35759C19.3607 3.46958 19.3845 3.58961 19.3845 3.71083C19.3845 3.83205 19.3607 3.95209 19.3143 4.06408C19.2679 4.17607 19.1999 4.27783 19.1141 4.36354L16.3449 7.13276C16.2593 7.21861 16.1576 7.28669 16.0456 7.33309C15.9335 7.37949 15.8135 7.40329 15.6922 7.40314Z" fill="white"/>
<path d="M0.923081 10.1727C0.80186 10.1727 0.681823 10.1488 0.569829 10.1024C0.457834 10.056 0.356071 9.98806 0.270354 9.90234C0.184638 9.81663 0.116647 9.71486 0.0702594 9.60287C0.0238718 9.49087 -3.89835e-06 9.37083 4.77417e-10 9.24961V8.32654C0.00723948 6.86036 0.592703 5.45624 1.62921 4.41923C2.66571 3.38221 4.06953 2.79605 5.53571 2.78809H17.5385C17.7833 2.78809 18.0181 2.88534 18.1912 3.05845C18.3643 3.23156 18.4615 3.46634 18.4615 3.71115C18.4615 3.95597 18.3643 4.19076 18.1912 4.36387C18.0181 4.53698 17.7833 4.63423 17.5385 4.63423H5.53846C4.56052 4.64004 3.6243 5.03128 2.93304 5.72306C2.24177 6.41485 1.85123 7.35135 1.84615 8.3293V9.24961C1.84616 9.37083 1.82228 9.49086 1.77589 9.60285C1.72951 9.71485 1.66152 9.81661 1.5758 9.90233C1.49008 9.98804 1.38833 10.056 1.27633 10.1024C1.16434 10.1488 1.0443 10.1727 0.923081 10.1727Z" fill="white"/>
<path d="M8.30768 17.5568C8.18644 17.557 8.06636 17.5332 7.95434 17.4868C7.84233 17.4404 7.74059 17.3723 7.65498 17.2865L4.88575 14.5172C4.80002 14.4315 4.73203 14.3298 4.68563 14.2178C4.63924 14.1058 4.61536 13.9858 4.61536 13.8645C4.61536 13.7433 4.63924 13.6233 4.68563 13.5113C4.73203 13.3993 4.80002 13.2975 4.88575 13.2118L7.65498 10.4426C7.82814 10.2698 8.06284 10.1727 8.3075 10.1729C8.55216 10.173 8.78678 10.2702 8.95978 10.4432C9.13278 10.6162 9.23001 10.8508 9.23013 11.0955C9.23024 11.3401 9.13321 11.5748 8.96037 11.748L6.84391 13.8645L8.96037 15.9811C9.08946 16.1102 9.17737 16.2746 9.21299 16.4537C9.2486 16.6327 9.23032 16.8183 9.16046 16.987C9.09059 17.1557 8.97229 17.2998 8.8205 17.4013C8.66871 17.5027 8.49024 17.5568 8.30768 17.5568Z" fill="white"/>
<path d="M6.46164 14.7879C6.21683 14.7879 5.98205 14.6907 5.80894 14.5176C5.63583 14.3445 5.53857 14.1097 5.53857 13.8649C5.53857 13.62 5.63583 13.3852 5.80894 13.2121C5.98205 13.039 6.21683 12.9418 6.46164 12.9418H18.4616C19.4396 12.936 20.3758 12.5447 21.067 11.8529C21.7583 11.1612 22.1488 10.2247 22.1539 9.2467V8.3264C22.1539 8.08159 22.2512 7.84679 22.4243 7.67368C22.5974 7.50057 22.8322 7.40332 23.077 7.40332C23.3218 7.40332 23.5566 7.50057 23.7297 7.67368C23.9028 7.84679 24.0001 8.08159 24.0001 8.3264V9.24948C23.9928 10.7157 23.4074 12.1198 22.3709 13.1568C21.3344 14.1938 19.9305 14.78 18.4643 14.7879L6.46164 14.7879Z" fill="white"/>
</svg>
