<svg version="1.1" id="Layer_1" xmlns="http://www.w3.org/2000/svg" xmlns:xlink="http://www.w3.org/1999/xlink" x="0px" y="0px"
	 width="100%" viewBox="0 0 2084 831" enable-background="new 0 0 2084 831" xml:space="preserve">
<path fill="#FFFFFF" opacity="1.000000" stroke="none" 
	d="
M1987.000000,832.000000 
	C1324.666626,832.000000 662.833313,832.000000 1.000000,832.000000 
	C1.000000,555.000000 1.000000,278.000000 1.000000,1.000000 
	C695.666687,1.000000 1390.333374,1.000000 2085.000000,1.000000 
	C2085.000000,278.000000 2085.000000,555.000000 2085.000000,832.000000 
	C2052.500000,832.000000 2020.000000,832.000000 1987.000000,832.000000 
M260.157654,422.499969 
	C260.157684,438.489075 260.098297,454.478455 260.175842,470.467194 
	C260.242737,484.259583 266.006012,489.991394 279.607300,489.999969 
	C298.594543,490.011932 317.603821,490.549408 336.560242,489.785095 
	C346.899078,489.368195 357.652161,488.166565 367.326263,484.774414 
	C384.126984,478.883331 392.570465,465.395782 394.049194,447.845245 
	C395.537659,430.179352 388.684967,416.741669 372.637665,408.493256 
	C369.814423,407.042084 366.853912,405.857910 365.085510,405.059845 
	C370.596893,399.595123 377.557129,394.896332 381.509460,388.374664 
	C395.019989,366.081238 382.406097,333.126892 350.946686,330.400024 
	C325.978302,328.235779 300.722046,329.145325 275.594666,329.198639 
	C266.900085,329.217102 262.346619,334.023224 260.821747,342.614502 
	C260.388641,345.054718 260.190033,347.567780 260.185211,350.048004 
	C260.139160,373.865234 260.157684,397.682617 260.157654,422.499969 
M806.290100,371.133575 
	C797.722290,374.022064 796.615845,381.405487 796.281372,389.043213 
	C794.461792,387.473694 792.939514,386.437897 791.758606,385.100647 
	C772.335571,363.106873 727.862366,365.418121 713.962402,398.152954 
	C704.052734,421.490387 704.842712,445.085205 717.151733,467.399597 
	C732.577698,495.364563 771.044922,496.173706 788.574524,478.222809 
	C790.470581,476.281158 792.521362,474.490601 795.104492,472.062042 
	C794.676025,480.163788 794.699463,487.639465 793.781982,494.997803 
	C792.716187,503.545685 788.875000,510.881744 780.031860,513.520081 
	C766.412781,517.583374 748.378540,518.734680 737.511597,502.459656 
	C736.870117,501.498962 736.030457,500.658905 735.218506,499.825531 
	C729.845520,494.310760 722.304932,493.242310 716.672302,497.174957 
	C711.088562,501.073486 709.883057,508.339417 713.673523,515.537170 
	C717.338806,522.497131 723.367737,526.836060 730.287781,530.009766 
	C750.109863,539.100769 770.683167,538.833191 791.368042,534.080750 
	C808.407837,530.165771 818.764526,519.077942 822.621155,502.127106 
	C823.832764,496.801819 824.702942,491.272156 824.745300,485.828400 
	C824.991638,454.179230 824.954773,422.527771 824.972656,390.877106 
	C824.973755,388.890686 824.737976,386.886383 824.424500,384.920410 
	C822.509460,372.910889 819.238586,370.300964 806.290100,371.133575 
M567.465088,464.964081 
	C583.417847,498.280457 621.422913,500.364105 642.586121,480.487091 
	C644.603882,478.591949 646.196716,476.244476 647.986816,474.107056 
	C649.398254,476.753967 649.624939,478.514282 649.874390,480.271393 
	C651.030518,488.416412 656.411743,493.134491 664.385071,493.002106 
	C671.917053,492.877045 677.103821,487.872528 677.932251,479.790375 
	C678.169312,477.477234 678.160828,475.132660 678.161560,472.802460 
	C678.174255,430.652557 678.176331,388.502655 678.158447,346.352753 
	C678.157288,343.690796 678.197266,340.997650 677.831482,338.372864 
	C676.728516,330.457916 672.070251,326.159058 664.716370,325.997864 
	C655.977356,325.806305 650.462158,330.231323 650.037781,339.381226 
	C649.382446,353.510254 649.626221,367.680786 649.470520,381.833527 
	C649.451416,383.573792 649.321350,385.312775 649.207886,387.823456 
	C646.736694,385.665009 644.854004,384.132294 643.095947,382.467987 
	C623.119385,363.556305 577.230591,365.110626 564.697021,403.361816 
	C557.981812,423.856079 558.815735,444.279114 567.465088,464.964081 
M1291.828247,500.499969 
	C1292.148804,509.458466 1291.874512,518.491211 1292.980591,527.351624 
	C1293.841797,534.249512 1297.461060,536.672668 1303.699829,536.998352 
	C1311.634155,537.412598 1316.332886,535.045471 1318.485718,528.767151 
	C1319.593628,525.536438 1320.053223,521.948425 1320.099121,518.512390 
	C1320.277222,505.193024 1320.163818,491.869904 1320.182373,478.548187 
	C1320.184204,477.172211 1320.342041,475.796448 1320.468872,473.755035 
	C1321.808838,475.190002 1322.645142,475.992249 1323.375610,476.881409 
	C1345.333374,503.609863 1387.837769,496.052155 1401.800781,465.676086 
	C1411.138916,445.361694 1411.860474,424.489166 1404.333130,403.574097 
	C1391.378052,367.577240 1346.139526,359.621490 1322.922607,387.585968 
	C1322.281250,388.358490 1321.320312,388.865692 1320.100830,389.813293 
	C1320.100830,387.469757 1320.219238,385.796661 1320.080688,384.145050 
	C1319.379272,375.781128 1313.958740,370.809875 1305.653442,370.831146 
	C1297.542969,370.851929 1292.578613,375.632019 1291.930908,384.105682 
	C1291.804321,385.762054 1291.832153,387.432190 1291.832031,389.095978 
	C1291.827026,425.897308 1291.828247,462.698608 1291.828247,500.499969 
M1720.092407,473.266937 
	C1725.439941,483.802704 1734.113037,489.946686 1745.574829,492.106964 
	C1762.925293,495.377075 1778.502563,490.868530 1792.726074,480.857056 
	C1794.860962,479.354309 1796.994019,477.848846 1798.899780,476.505493 
	C1802.364868,480.773041 1805.269775,484.857269 1808.692749,488.447571 
	C1813.822388,493.827911 1819.480225,494.545135 1825.345581,491.124725 
	C1831.442627,487.569305 1833.572876,482.848694 1831.223511,475.461487 
	C1827.381470,463.381287 1826.551636,451.091187 1826.746216,438.526733 
	C1826.926270,426.895782 1826.877563,415.200928 1825.871582,403.626160 
	C1824.379150,386.454407 1814.911011,376.529816 1798.032104,373.021362 
	C1794.782227,372.345856 1791.489136,371.720459 1788.186523,371.484680 
	C1772.332397,370.352722 1756.532349,370.142670 1741.702637,377.170349 
	C1732.324219,381.614716 1724.996582,388.034393 1722.722046,398.804382 
	C1721.244263,405.802582 1723.334106,410.933990 1729.295288,413.134674 
	C1734.899902,415.203705 1741.642944,415.407532 1745.241821,408.499512 
	C1752.110474,395.314850 1763.623169,391.306244 1777.795166,392.094238 
	C1791.295654,392.844940 1797.992554,400.262360 1796.598022,413.932617 
	C1795.520996,414.276825 1794.435791,414.712616 1793.309814,414.970093 
	C1777.114746,418.673187 1760.880859,422.212463 1744.723022,426.070709 
	C1721.860840,431.529938 1711.210693,451.576111 1720.092407,473.266937 
M904.636597,370.997345 
	C880.981140,372.410248 863.112244,382.611084 854.399170,405.448914 
	C847.827576,422.673798 847.950745,440.337006 853.994385,457.758026 
	C858.309814,470.197113 866.244690,480.147888 878.140991,485.797089 
	C900.183716,496.264465 922.535156,496.222443 944.335388,484.829834 
	C952.140991,480.750702 958.708923,474.719635 961.184509,465.959290 
	C962.142639,462.568787 961.516724,457.900879 959.818604,454.796051 
	C957.613159,450.763428 952.718140,450.858765 948.554443,451.927826 
	C946.598999,452.429932 944.843079,453.968506 943.168945,455.260529 
	C937.134399,459.917603 931.668823,465.577850 925.071289,469.179016 
	C914.392639,475.007751 903.100464,474.769806 893.116638,467.149323 
	C884.073303,460.246735 880.791260,450.454712 880.929626,439.002533 
	C901.433472,439.002533 921.405823,439.083679 941.376343,438.933380 
	C945.322510,438.903687 949.361938,438.372620 953.182800,437.390076 
	C960.391235,435.536438 963.528259,431.655304 963.906494,424.263855 
	C964.680603,409.138153 959.664978,396.099731 948.748474,385.596283 
	C936.716370,374.019440 921.878906,370.265533 904.636597,370.997345 
M1578.848389,485.388367 
	C1582.186401,482.923218 1585.831299,480.780396 1588.812378,477.940552 
	C1608.133911,459.534668 1612.673462,424.330444 1599.517944,399.726746 
	C1581.848389,366.680725 1536.686401,364.522339 1512.509888,380.172424 
	C1495.733398,391.032227 1489.032715,407.448761 1487.296265,426.608185 
	C1484.769043,454.492523 1498.252930,479.374512 1522.147461,488.586060 
	C1541.015503,495.859894 1559.946045,494.909637 1578.848389,485.388367 
M502.486603,400.508270 
	C502.316223,414.488953 502.286896,428.473236 501.933136,442.449280 
	C501.622406,454.725861 496.200134,463.821686 484.348114,468.287964 
	C470.952789,473.335785 459.714050,467.072205 457.156982,453.018219 
	C456.298309,448.298950 455.944397,443.433899 455.899139,438.630432 
	C455.748505,422.641205 455.877930,406.649475 455.808411,390.659119 
	C455.796936,388.017242 455.540710,385.334747 455.027008,382.744537 
	C453.462982,374.858032 448.059509,370.826569 439.592255,370.997650 
	C432.190948,371.147156 427.022949,375.827301 425.956055,383.587250 
	C425.572479,386.377197 425.486420,389.228088 425.502808,392.049774 
	C425.631500,414.195038 425.364319,436.355743 426.132141,458.480011 
	C426.732330,475.774689 435.807098,487.310852 451.664825,491.351135 
	C468.826080,495.723541 484.692932,492.834625 497.851685,479.989777 
	C499.807037,478.081055 501.665436,476.072998 503.719666,473.955292 
	C504.214478,477.336243 504.404205,480.178864 505.074249,482.903351 
	C506.703217,489.526794 512.001831,493.302307 519.096741,493.169067 
	C525.850037,493.042297 530.649170,489.061157 531.959351,482.248718 
	C532.395508,479.980591 532.489380,477.618683 532.492126,475.299347 
	C532.525879,446.815979 532.521729,418.332611 532.497192,389.849213 
	C532.495361,387.692352 532.437317,385.508850 532.108643,383.383636 
	C530.864197,375.336914 525.508362,370.921448 517.273254,370.997498 
	C509.575928,371.068604 503.946472,375.780670 503.062347,383.569550 
	C502.464325,388.837982 502.651031,394.195496 502.486603,400.508270 
M1041.342285,469.822754 
	C1033.011719,469.766907 1030.036743,467.240479 1029.933228,458.939270 
	C1029.671265,437.963593 1029.712036,416.984131 1029.656860,396.006073 
	C1029.656250,395.764313 1029.993774,395.521637 1029.955444,395.573303 
	C1035.628784,394.947021 1041.172974,394.866699 1046.439819,393.617035 
	C1052.816162,392.104218 1055.500977,385.546234 1052.575195,379.851135 
	C1050.471802,375.756927 1046.732422,374.092407 1042.270752,374.012848 
	C1038.140015,373.939178 1034.007080,373.997131 1029.515381,373.997131 
	C1029.515381,369.932281 1029.571899,366.301666 1029.503174,362.673401 
	C1029.380127,356.186859 1029.440430,349.682037 1028.948120,343.221161 
	C1028.359863,335.501312 1022.276001,330.097626 1014.704285,329.996307 
	C1006.834412,329.890930 1001.024109,334.828552 999.927124,342.604706 
	C999.695190,344.249268 999.501160,345.915405 999.493103,347.572571 
	C999.450562,356.322052 999.473145,365.071869 999.473145,373.753998 
	C987.083008,374.441467 982.414429,377.098297 982.140076,383.611359 
	C982.048279,385.789764 982.688477,388.336945 983.854614,390.167267 
	C987.392395,395.719757 993.527039,394.912201 999.155945,395.134918 
	C999.155945,397.647095 999.134216,399.633545 999.159302,401.619385 
	C999.432434,423.255676 999.529419,444.896698 1000.092651,466.525513 
	C1000.285095,473.917419 1002.604675,480.649506 1008.165039,486.321869 
	C1017.566406,495.912567 1050.851074,494.524109 1058.949341,487.078766 
	C1059.193848,486.854034 1059.475098,486.668213 1059.711060,486.435699 
	C1063.292969,482.907227 1064.130371,478.668610 1062.447876,474.072510 
	C1060.870972,469.764771 1056.684448,467.527954 1051.518311,468.105743 
	C1048.387085,468.455902 1045.300293,469.202362 1041.342285,469.822754 
M1454.210205,326.920197 
	C1442.880249,323.607452 1435.130371,328.597015 1433.617432,340.249115 
	C1433.318481,342.551910 1433.178833,344.891602 1433.177368,347.214447 
	C1433.151733,388.697571 1433.138062,430.180756 1433.198486,471.663788 
	C1433.203369,474.972046 1433.473877,478.339661 1434.134521,481.574829 
	C1435.531006,488.413391 1440.825439,492.806061 1447.384644,493.003357 
	C1457.233032,493.299683 1463.414185,487.475128 1463.450562,476.829071 
	C1463.604004,432.014496 1463.543945,387.199036 1463.486694,342.384003 
	C1463.478394,335.833130 1461.226807,330.314392 1454.210205,326.920197 
M1640.392212,371.363922 
	C1634.641602,373.194763 1631.758667,377.497681 1630.970825,383.131256 
	C1630.352051,387.556152 1630.199707,392.074066 1630.188232,396.551575 
	C1630.120483,423.046478 1630.106567,449.541748 1630.178589,476.036652 
	C1630.205811,486.067505 1635.741577,492.692078 1644.008179,493.003906 
	C1653.757324,493.371613 1659.639404,488.060883 1660.087769,477.458954 
	C1660.594116,465.486298 1659.851074,453.445648 1660.682495,441.506409 
	C1661.438965,430.642914 1662.743286,419.667999 1665.365723,409.130310 
	C1667.548218,400.359955 1674.136963,396.551239 1682.718994,397.293671 
	C1687.457520,397.703613 1692.112183,399.255157 1696.763916,400.450348 
	C1702.631226,401.957886 1707.517334,400.308624 1710.735596,395.532806 
	C1713.777344,391.018921 1713.528931,384.962158 1710.124146,380.618042 
	C1700.534058,368.382141 1676.583862,367.641663 1666.438599,379.336365 
	C1664.102539,382.029388 1662.067627,384.983887 1659.698853,388.072845 
	C1656.802856,373.091248 1653.869629,370.475433 1640.392212,371.363922 
M1118.545776,382.953857 
	C1125.418335,389.742798 1132.288818,396.533783 1139.164307,403.319946 
	C1144.389648,408.477570 1147.987549,414.554321 1149.207520,421.841431 
	C1149.826050,425.536285 1150.033081,429.300049 1150.348145,432.292450 
	C1161.516968,421.857880 1173.005981,411.124268 1182.785278,401.987885 
	C1169.091309,387.353851 1156.176514,373.461884 1143.142944,359.682098 
	C1139.486938,355.816650 1135.745605,351.945740 1131.578369,348.668945 
	C1124.292725,342.940125 1113.899292,344.082855 1108.160034,350.773804 
	C1102.197632,357.725006 1102.555054,366.866241 1109.145752,373.689880 
	C1112.037354,376.683624 1115.074707,379.536743 1118.545776,382.953857 
M1232.833618,456.683838 
	C1226.855713,450.898132 1220.919189,445.068787 1214.890747,439.336090 
	C1203.344238,428.355835 1191.777344,417.413422 1194.019897,399.722809 
	C1182.550049,410.536713 1171.156494,421.278625 1159.761719,432.021729 
	C1160.737183,433.274078 1161.086304,433.846985 1161.551392,434.301270 
	C1178.216553,450.579346 1194.851929,466.888336 1211.593262,483.087738 
	C1216.219360,487.564026 1222.082153,487.996307 1227.910522,486.424927 
	C1239.736328,483.236481 1245.312744,467.348511 1232.833618,456.683838 
M1082.174194,472.079102 
	C1089.868164,483.562378 1100.792725,484.692444 1110.510864,474.855347 
	C1118.818970,466.445435 1127.092773,457.994812 1135.158081,449.353394 
	C1146.984863,436.681519 1144.740845,415.868164 1130.469238,405.912140 
	C1115.150024,421.606201 1099.661011,437.197052 1084.533813,453.131287 
	C1079.665405,458.259277 1079.488892,464.803650 1082.174194,472.079102 
M1215.961670,375.462463 
	C1213.639038,377.847076 1211.265869,380.184631 1209.002441,382.624115 
	C1197.069946,395.484497 1199.263672,417.420685 1213.582153,426.307648 
	C1228.150146,411.336487 1242.911621,396.459381 1257.308838,381.237854 
	C1263.758301,374.419281 1262.681641,363.563751 1255.665405,357.105560 
	C1249.042114,351.008789 1239.381226,351.501129 1232.428223,358.458771 
	C1227.018311,363.872375 1221.777832,369.455322 1215.961670,375.462463 
z"/>
<path fill="#242021" opacity="1.000000" stroke="none" 
	d="
M260.157654,421.999939 
	C260.157684,397.682617 260.139160,373.865234 260.185211,350.048004 
	C260.190033,347.567780 260.388641,345.054718 260.821747,342.614502 
	C262.346619,334.023224 266.900085,329.217102 275.594666,329.198639 
	C300.722046,329.145325 325.978302,328.235779 350.946686,330.400024 
	C382.406097,333.126892 395.019989,366.081238 381.509460,388.374664 
	C377.557129,394.896332 370.596893,399.595123 365.085510,405.059845 
	C366.853912,405.857910 369.814423,407.042084 372.637665,408.493256 
	C388.684967,416.741669 395.537659,430.179352 394.049194,447.845245 
	C392.570465,465.395782 384.126984,478.883331 367.326263,484.774414 
	C357.652161,488.166565 346.899078,489.368195 336.560242,489.785095 
	C317.603821,490.549408 298.594543,490.011932 279.607300,489.999969 
	C266.006012,489.991394 260.242737,484.259583 260.175842,470.467194 
	C260.098297,454.478455 260.157684,438.489075 260.157654,421.999939 
M293.747101,465.924408 
	C304.736694,465.948456 315.732422,466.200500 326.713348,465.903625 
	C332.492004,465.747406 338.380951,465.187897 343.976624,463.816833 
	C352.000793,461.850769 357.976776,457.105438 360.106628,448.551208 
	C363.978210,433.001465 356.251984,420.972931 339.638123,419.293762 
	C324.332306,417.746796 308.840363,418.040741 293.073730,417.511780 
	C293.073730,434.021912 293.073730,449.628693 293.747101,465.924408 
M293.000946,381.491882 
	C293.000946,385.921814 293.000946,390.351746 293.000946,394.849457 
	C303.717865,394.849457 313.854248,395.074890 323.973846,394.760529 
	C329.584259,394.586243 335.315094,394.090271 340.727325,392.705902 
	C349.175110,390.545044 354.569550,382.200470 354.479004,372.917847 
	C354.384705,363.250214 350.254364,357.667542 340.749542,355.380463 
	C325.060822,351.605316 309.103363,353.421021 293.000946,352.965332 
	C293.000946,362.559937 293.000946,371.527557 293.000946,381.491882 
z"/>
<path fill="#242122" opacity="1.000000" stroke="none" 
	d="
M806.706421,371.069153 
	C819.238586,370.300964 822.509460,372.910889 824.424500,384.920410 
	C824.737976,386.886383 824.973755,388.890686 824.972656,390.877106 
	C824.954773,422.527771 824.991638,454.179230 824.745300,485.828400 
	C824.702942,491.272156 823.832764,496.801819 822.621155,502.127106 
	C818.764526,519.077942 808.407837,530.165771 791.368042,534.080750 
	C770.683167,538.833191 750.109863,539.100769 730.287781,530.009766 
	C723.367737,526.836060 717.338806,522.497131 713.673523,515.537170 
	C709.883057,508.339417 711.088562,501.073486 716.672302,497.174957 
	C722.304932,493.242310 729.845520,494.310760 735.218506,499.825531 
	C736.030457,500.658905 736.870117,501.498962 737.511597,502.459656 
	C748.378540,518.734680 766.412781,517.583374 780.031860,513.520081 
	C788.875000,510.881744 792.716187,503.545685 793.781982,494.997803 
	C794.699463,487.639465 794.676025,480.163788 795.104492,472.062042 
	C792.521362,474.490601 790.470581,476.281158 788.574524,478.222809 
	C771.044922,496.173706 732.577698,495.364563 717.151733,467.399597 
	C704.842712,445.085205 704.052734,421.490387 713.962402,398.152954 
	C727.862366,365.418121 772.335571,363.106873 791.758606,385.100647 
	C792.939514,386.437897 794.461792,387.473694 796.281372,389.043213 
	C796.615845,381.405487 797.722290,374.022064 806.706421,371.069153 
M777.585022,465.282227 
	C781.766846,461.400726 787.256470,458.245575 789.889771,453.504120 
	C798.415100,438.153229 797.425964,422.114624 789.524048,406.823273 
	C784.433655,396.972565 775.437622,392.489380 764.284180,393.213562 
	C753.424744,393.918671 746.028931,399.844910 741.908936,409.669647 
	C736.911621,421.586578 736.715027,433.956055 739.970337,446.309448 
	C744.626099,463.977783 759.655579,471.739441 777.585022,465.282227 
z"/>
<path fill="#242021" opacity="1.000000" stroke="none" 
	d="
M567.294189,464.627014 
	C558.815735,444.279114 557.981812,423.856079 564.697021,403.361816 
	C577.230591,365.110626 623.119385,363.556305 643.095947,382.467987 
	C644.854004,384.132294 646.736694,385.665009 649.207886,387.823456 
	C649.321350,385.312775 649.451416,383.573792 649.470520,381.833527 
	C649.626221,367.680786 649.382446,353.510254 650.037781,339.381226 
	C650.462158,330.231323 655.977356,325.806305 664.716370,325.997864 
	C672.070251,326.159058 676.728516,330.457916 677.831482,338.372864 
	C678.197266,340.997650 678.157288,343.690796 678.158447,346.352753 
	C678.176331,388.502655 678.174255,430.652557 678.161560,472.802460 
	C678.160828,475.132660 678.169312,477.477234 677.932251,479.790375 
	C677.103821,487.872528 671.917053,492.877045 664.385071,493.002106 
	C656.411743,493.134491 651.030518,488.416412 649.874390,480.271393 
	C649.624939,478.514282 649.398254,476.753967 647.986816,474.107056 
	C646.196716,476.244476 644.603882,478.591949 642.586121,480.487091 
	C621.422913,500.364105 583.417847,498.280457 567.294189,464.627014 
M608.337036,467.380920 
	C622.171692,472.968018 635.894409,468.766663 642.392151,455.794250 
	C650.386108,439.834717 650.268433,423.328461 641.976440,407.429596 
	C636.871582,397.641632 628.288269,392.450317 617.046448,393.258057 
	C606.187744,394.038300 599.013428,400.432587 594.961304,410.207397 
	C589.381836,423.666565 589.316406,437.421509 594.089844,451.113403 
	C596.517151,458.075806 600.935791,463.605011 608.337036,467.380920 
z"/>
<path fill="#242021" opacity="1.000000" stroke="none" 
	d="
M1291.828247,499.999939 
	C1291.828247,462.698608 1291.827026,425.897308 1291.832031,389.095978 
	C1291.832153,387.432190 1291.804321,385.762054 1291.930908,384.105682 
	C1292.578613,375.632019 1297.542969,370.851929 1305.653442,370.831146 
	C1313.958740,370.809875 1319.379272,375.781128 1320.080688,384.145050 
	C1320.219238,385.796661 1320.100830,387.469757 1320.100830,389.813293 
	C1321.320312,388.865692 1322.281250,388.358490 1322.922607,387.585968 
	C1346.139526,359.621490 1391.378052,367.577240 1404.333130,403.574097 
	C1411.860474,424.489166 1411.138916,445.361694 1401.800781,465.676086 
	C1387.837769,496.052155 1345.333374,503.609863 1323.375610,476.881409 
	C1322.645142,475.992249 1321.808838,475.190002 1320.468872,473.755035 
	C1320.342041,475.796448 1320.184204,477.172211 1320.182373,478.548187 
	C1320.163818,491.869904 1320.277222,505.193024 1320.099121,518.512390 
	C1320.053223,521.948425 1319.593628,525.536438 1318.485718,528.767151 
	C1316.332886,535.045471 1311.634155,537.412598 1303.699829,536.998352 
	C1297.461060,536.672668 1293.841797,534.249512 1292.980591,527.351624 
	C1291.874512,518.491211 1292.148804,509.458466 1291.828247,499.999939 
M1325.301147,410.978058 
	C1320.570190,424.989746 1319.784790,439.080780 1325.901855,452.793304 
	C1330.765625,463.696014 1339.330688,470.149261 1351.692505,469.753967 
	C1363.561279,469.374451 1370.899048,462.298309 1375.090820,451.789886 
	C1380.146729,439.114685 1380.246704,426.109161 1375.950928,413.251160 
	C1372.272827,402.241974 1365.176758,394.429993 1352.967896,393.247223 
	C1341.253906,392.112396 1331.504761,398.498199 1325.301147,410.978058 
z"/>
<path fill="#252122" opacity="1.000000" stroke="none" 
	d="
M1719.958984,472.908875 
	C1711.210693,451.576111 1721.860840,431.529938 1744.723022,426.070709 
	C1760.880859,422.212463 1777.114746,418.673187 1793.309814,414.970093 
	C1794.435791,414.712616 1795.520996,414.276825 1796.598022,413.932617 
	C1797.992554,400.262360 1791.295654,392.844940 1777.795166,392.094238 
	C1763.623169,391.306244 1752.110474,395.314850 1745.241821,408.499512 
	C1741.642944,415.407532 1734.899902,415.203705 1729.295288,413.134674 
	C1723.334106,410.933990 1721.244263,405.802582 1722.722046,398.804382 
	C1724.996582,388.034393 1732.324219,381.614716 1741.702637,377.170349 
	C1756.532349,370.142670 1772.332397,370.352722 1788.186523,371.484680 
	C1791.489136,371.720459 1794.782227,372.345856 1798.032104,373.021362 
	C1814.911011,376.529816 1824.379150,386.454407 1825.871582,403.626160 
	C1826.877563,415.200928 1826.926270,426.895782 1826.746216,438.526733 
	C1826.551636,451.091187 1827.381470,463.381287 1831.223511,475.461487 
	C1833.572876,482.848694 1831.442627,487.569305 1825.345581,491.124725 
	C1819.480225,494.545135 1813.822388,493.827911 1808.692749,488.447571 
	C1805.269775,484.857269 1802.364868,480.773041 1798.899780,476.505493 
	C1796.994019,477.848846 1794.860962,479.354309 1792.726074,480.857056 
	C1778.502563,490.868530 1762.925293,495.377075 1745.574829,492.106964 
	C1734.113037,489.946686 1725.439941,483.802704 1719.958984,472.908875 
M1750.623169,447.214783 
	C1746.621704,452.105469 1746.082764,457.495544 1748.779541,463.068481 
	C1751.906128,469.530151 1757.463013,472.775665 1764.448853,472.769012 
	C1787.497437,472.747070 1800.139893,458.606812 1796.434326,432.761230 
	C1791.928833,433.896729 1787.444702,435.077301 1782.934692,436.149414 
	C1778.409302,437.225189 1773.846069,438.141510 1769.321411,439.220154 
	C1762.877075,440.756439 1756.196655,441.755554 1750.623169,447.214783 
z"/>
<path fill="#252122" opacity="1.000000" stroke="none" 
	d="
M905.118774,370.997314 
	C921.878906,370.265533 936.716370,374.019440 948.748474,385.596283 
	C959.664978,396.099731 964.680603,409.138153 963.906494,424.263855 
	C963.528259,431.655304 960.391235,435.536438 953.182800,437.390076 
	C949.361938,438.372620 945.322510,438.903687 941.376343,438.933380 
	C921.405823,439.083679 901.433472,439.002533 880.929626,439.002533 
	C880.791260,450.454712 884.073303,460.246735 893.116638,467.149323 
	C903.100464,474.769806 914.392639,475.007751 925.071289,469.179016 
	C931.668823,465.577850 937.134399,459.917603 943.168945,455.260529 
	C944.843079,453.968506 946.598999,452.429932 948.554443,451.927826 
	C952.718140,450.858765 957.613159,450.763428 959.818604,454.796051 
	C961.516724,457.900879 962.142639,462.568787 961.184509,465.959290 
	C958.708923,474.719635 952.140991,480.750702 944.335388,484.829834 
	C922.535156,496.222443 900.183716,496.264465 878.140991,485.797089 
	C866.244690,480.147888 858.309814,470.197113 853.994385,457.758026 
	C847.950745,440.337006 847.827576,422.673798 854.399170,405.448914 
	C863.112244,382.611084 880.981140,372.410248 905.118774,370.997314 
M934.322021,418.075989 
	C932.379883,404.227509 925.635803,395.478027 914.993591,393.000214 
	C896.362793,388.662415 881.255066,401.412781 881.108215,421.997742 
	C898.208252,421.997742 915.308838,421.954407 932.408691,422.042267 
	C935.121094,422.056183 934.878235,420.668060 934.322021,418.075989 
z"/>
<path fill="#252122" opacity="1.000000" stroke="none" 
	d="
M1578.542847,485.596039 
	C1559.946045,494.909637 1541.015503,495.859894 1522.147461,488.586060 
	C1498.252930,479.374512 1484.769043,454.492523 1487.296265,426.608185 
	C1489.032715,407.448761 1495.733398,391.032227 1512.509888,380.172424 
	C1536.686401,364.522339 1581.848389,366.680725 1599.517944,399.726746 
	C1612.673462,424.330444 1608.133911,459.534668 1588.812378,477.940552 
	C1585.831299,480.780396 1582.186401,482.923218 1578.542847,485.596039 
M1517.644043,429.828552 
	C1517.455444,438.893250 1518.450684,447.706940 1522.727539,455.923492 
	C1527.598999,465.281952 1535.204834,470.393066 1545.752563,470.806183 
	C1556.674561,471.233887 1565.533203,466.915161 1570.541138,457.216644 
	C1579.082520,440.675293 1579.023682,423.537262 1570.682861,406.968414 
	C1565.681030,397.031921 1556.606812,392.663635 1545.497070,393.209473 
	C1534.991699,393.725647 1526.774658,398.613892 1522.815796,408.388641 
	C1520.192383,414.865753 1519.388184,422.079620 1517.644043,429.828552 
z"/>
<path fill="#242021" opacity="1.000000" stroke="none" 
	d="
M502.486664,400.010742 
	C502.651031,394.195496 502.464325,388.837982 503.062347,383.569550 
	C503.946472,375.780670 509.575928,371.068604 517.273254,370.997498 
	C525.508362,370.921448 530.864197,375.336914 532.108643,383.383636 
	C532.437317,385.508850 532.495361,387.692352 532.497192,389.849213 
	C532.521729,418.332611 532.525879,446.815979 532.492126,475.299347 
	C532.489380,477.618683 532.395508,479.980591 531.959351,482.248718 
	C530.649170,489.061157 525.850037,493.042297 519.096741,493.169067 
	C512.001831,493.302307 506.703217,489.526794 505.074249,482.903351 
	C504.404205,480.178864 504.214478,477.336243 503.719666,473.955292 
	C501.665436,476.072998 499.807037,478.081055 497.851685,479.989777 
	C484.692932,492.834625 468.826080,495.723541 451.664825,491.351135 
	C435.807098,487.310852 426.732330,475.774689 426.132141,458.480011 
	C425.364319,436.355743 425.631500,414.195038 425.502808,392.049774 
	C425.486420,389.228088 425.572479,386.377197 425.956055,383.587250 
	C427.022949,375.827301 432.190948,371.147156 439.592255,370.997650 
	C448.059509,370.826569 453.462982,374.858032 455.027008,382.744537 
	C455.540710,385.334747 455.796936,388.017242 455.808411,390.659119 
	C455.877930,406.649475 455.748505,422.641205 455.899139,438.630432 
	C455.944397,443.433899 456.298309,448.298950 457.156982,453.018219 
	C459.714050,467.072205 470.952789,473.335785 484.348114,468.287964 
	C496.200134,463.821686 501.622406,454.725861 501.933136,442.449280 
	C502.286896,428.473236 502.316223,414.488953 502.486664,400.010742 
z"/>
<path fill="#252122" opacity="1.000000" stroke="none" 
	d="
M1041.767822,469.796753 
	C1045.300293,469.202362 1048.387085,468.455902 1051.518311,468.105743 
	C1056.684448,467.527954 1060.870972,469.764771 1062.447876,474.072510 
	C1064.130371,478.668610 1063.292969,482.907227 1059.711060,486.435699 
	C1059.475098,486.668213 1059.193848,486.854034 1058.949341,487.078766 
	C1050.851074,494.524109 1017.566406,495.912567 1008.165039,486.321869 
	C1002.604675,480.649506 1000.285095,473.917419 1000.092651,466.525513 
	C999.529419,444.896698 999.432434,423.255676 999.159302,401.619385 
	C999.134216,399.633545 999.155945,397.647095 999.155945,395.134918 
	C993.527039,394.912201 987.392395,395.719757 983.854614,390.167267 
	C982.688477,388.336945 982.048279,385.789764 982.140076,383.611359 
	C982.414429,377.098297 987.083008,374.441467 999.473145,373.753998 
	C999.473145,365.071869 999.450562,356.322052 999.493103,347.572571 
	C999.501160,345.915405 999.695190,344.249268 999.927124,342.604706 
	C1001.024109,334.828552 1006.834412,329.890930 1014.704285,329.996307 
	C1022.276001,330.097626 1028.359863,335.501312 1028.948120,343.221161 
	C1029.440430,349.682037 1029.380127,356.186859 1029.503174,362.673401 
	C1029.571899,366.301666 1029.515381,369.932281 1029.515381,373.997131 
	C1034.007080,373.997131 1038.140015,373.939178 1042.270752,374.012848 
	C1046.732422,374.092407 1050.471802,375.756927 1052.575195,379.851135 
	C1055.500977,385.546234 1052.816162,392.104218 1046.439819,393.617035 
	C1041.172974,394.866699 1035.628784,394.947021 1029.955444,395.573303 
	C1029.993774,395.521637 1029.656250,395.764313 1029.656860,396.006073 
	C1029.712036,416.984131 1029.671265,437.963593 1029.933228,458.939270 
	C1030.036743,467.240479 1033.011719,469.766907 1041.767822,469.796753 
z"/>
<path fill="#252122" opacity="1.000000" stroke="none" 
	d="
M1454.587158,327.036743 
	C1461.226807,330.314392 1463.478394,335.833130 1463.486694,342.384003 
	C1463.543945,387.199036 1463.604004,432.014496 1463.450562,476.829071 
	C1463.414185,487.475128 1457.233032,493.299683 1447.384644,493.003357 
	C1440.825439,492.806061 1435.531006,488.413391 1434.134521,481.574829 
	C1433.473877,478.339661 1433.203369,474.972046 1433.198486,471.663788 
	C1433.138062,430.180756 1433.151733,388.697571 1433.177368,347.214447 
	C1433.178833,344.891602 1433.318481,342.551910 1433.617432,340.249115 
	C1435.130371,328.597015 1442.880249,323.607452 1454.587158,327.036743 
z"/>
<path fill="#252122" opacity="1.000000" stroke="none" 
	d="
M1640.795410,371.264099 
	C1653.869629,370.475433 1656.802856,373.091248 1659.698853,388.072845 
	C1662.067627,384.983887 1664.102539,382.029388 1666.438599,379.336365 
	C1676.583862,367.641663 1700.534058,368.382141 1710.124146,380.618042 
	C1713.528931,384.962158 1713.777344,391.018921 1710.735596,395.532806 
	C1707.517334,400.308624 1702.631226,401.957886 1696.763916,400.450348 
	C1692.112183,399.255157 1687.457520,397.703613 1682.718994,397.293671 
	C1674.136963,396.551239 1667.548218,400.359955 1665.365723,409.130310 
	C1662.743286,419.667999 1661.438965,430.642914 1660.682495,441.506409 
	C1659.851074,453.445648 1660.594116,465.486298 1660.087769,477.458954 
	C1659.639404,488.060883 1653.757324,493.371613 1644.008179,493.003906 
	C1635.741577,492.692078 1630.205811,486.067505 1630.178589,476.036652 
	C1630.106567,449.541748 1630.120483,423.046478 1630.188232,396.551575 
	C1630.199707,392.074066 1630.352051,387.556152 1630.970825,383.131256 
	C1631.758667,377.497681 1634.641602,373.194763 1640.795410,371.264099 
z"/>
<path fill="#ED1E26" opacity="1.000000" stroke="none" 
	d="
M1118.295776,382.703796 
	C1115.074707,379.536743 1112.037354,376.683624 1109.145752,373.689880 
	C1102.555054,366.866241 1102.197632,357.725006 1108.160034,350.773804 
	C1113.899292,344.082855 1124.292725,342.940125 1131.578369,348.668945 
	C1135.745605,351.945740 1139.486938,355.816650 1143.142944,359.682098 
	C1156.176514,373.461884 1169.091309,387.353851 1182.785278,401.987885 
	C1173.005981,411.124268 1161.516968,421.857880 1150.348145,432.292450 
	C1150.033081,429.300049 1149.826050,425.536285 1149.207520,421.841431 
	C1147.987549,414.554321 1144.389648,408.477570 1139.164307,403.319946 
	C1132.288818,396.533783 1125.418335,389.742798 1118.295776,382.703796 
z"/>
<path fill="#ED1D26" opacity="1.000000" stroke="none" 
	d="
M1233.086670,456.936035 
	C1245.312744,467.348511 1239.736328,483.236481 1227.910522,486.424927 
	C1222.082153,487.996307 1216.219360,487.564026 1211.593262,483.087738 
	C1194.851929,466.888336 1178.216553,450.579346 1161.551392,434.301270 
	C1161.086304,433.846985 1160.737183,433.274078 1159.761719,432.021729 
	C1171.156494,421.278625 1182.550049,410.536713 1194.019897,399.722809 
	C1191.777344,417.413422 1203.344238,428.355835 1214.890747,439.336090 
	C1220.919189,445.068787 1226.855713,450.898132 1233.086670,456.936035 
z"/>
<path fill="#ED1D26" opacity="1.000000" stroke="none" 
	d="
M1082.061279,471.716797 
	C1079.488892,464.803650 1079.665405,458.259277 1084.533813,453.131287 
	C1099.661011,437.197052 1115.150024,421.606201 1130.469238,405.912140 
	C1144.740845,415.868164 1146.984863,436.681519 1135.158081,449.353394 
	C1127.092773,457.994812 1118.818970,466.445435 1110.510864,474.855347 
	C1100.792725,484.692444 1089.868164,483.562378 1082.061279,471.716797 
z"/>
<path fill="#ED1D26" opacity="1.000000" stroke="none" 
	d="
M1216.211914,375.212708 
	C1221.777832,369.455322 1227.018311,363.872375 1232.428223,358.458771 
	C1239.381226,351.501129 1249.042114,351.008789 1255.665405,357.105560 
	C1262.681641,363.563751 1263.758301,374.419281 1257.308838,381.237854 
	C1242.911621,396.459381 1228.150146,411.336487 1213.582153,426.307648 
	C1199.263672,417.420685 1197.069946,395.484497 1209.002441,382.624115 
	C1211.265869,380.184631 1213.639038,377.847076 1216.211914,375.212708 
z"/>
<path fill="#FEFEFE" opacity="1.000000" stroke="none" 
	d="
M293.410400,465.579956 
	C293.073730,449.628693 293.073730,434.021912 293.073730,417.511780 
	C308.840363,418.040741 324.332306,417.746796 339.638123,419.293762 
	C356.251984,420.972931 363.978210,433.001465 360.106628,448.551208 
	C357.976776,457.105438 352.000793,461.850769 343.976624,463.816833 
	C338.380951,465.187897 332.492004,465.747406 326.713348,465.903625 
	C315.732422,466.200500 304.736694,465.948456 293.410400,465.579956 
z"/>
<path fill="#FEFEFE" opacity="1.000000" stroke="none" 
	d="
M293.000946,380.993530 
	C293.000946,371.527557 293.000946,362.559937 293.000946,352.965332 
	C309.103363,353.421021 325.060822,351.605316 340.749542,355.380463 
	C350.254364,357.667542 354.384705,363.250214 354.479004,372.917847 
	C354.569550,382.200470 349.175110,390.545044 340.727325,392.705902 
	C335.315094,394.090271 329.584259,394.586243 323.973846,394.760529 
	C313.854248,395.074890 303.717865,394.849457 293.000946,394.849457 
	C293.000946,390.351746 293.000946,385.921814 293.000946,380.993530 
z"/>
<path fill="#FDFDFD" opacity="1.000000" stroke="none" 
	d="
M777.262878,465.493347 
	C759.655579,471.739441 744.626099,463.977783 739.970337,446.309448 
	C736.715027,433.956055 736.911621,421.586578 741.908936,409.669647 
	C746.028931,399.844910 753.424744,393.918671 764.284180,393.213562 
	C775.437622,392.489380 784.433655,396.972565 789.524048,406.823273 
	C797.425964,422.114624 798.415100,438.153229 789.889771,453.504120 
	C787.256470,458.245575 781.766846,461.400726 777.262878,465.493347 
z"/>
<path fill="#FDFDFD" opacity="1.000000" stroke="none" 
	d="
M607.994019,467.214539 
	C600.935791,463.605011 596.517151,458.075806 594.089844,451.113403 
	C589.316406,437.421509 589.381836,423.666565 594.961304,410.207397 
	C599.013428,400.432587 606.187744,394.038300 617.046448,393.258057 
	C628.288269,392.450317 636.871582,397.641632 641.976440,407.429596 
	C650.268433,423.328461 650.386108,439.834717 642.392151,455.794250 
	C635.894409,468.766663 622.171692,472.968018 607.994019,467.214539 
z"/>
<path fill="#FDFDFD" opacity="1.000000" stroke="none" 
	d="
M1325.496826,410.649994 
	C1331.504761,398.498199 1341.253906,392.112396 1352.967896,393.247223 
	C1365.176758,394.429993 1372.272827,402.241974 1375.950928,413.251160 
	C1380.246704,426.109161 1380.146729,439.114685 1375.090820,451.789886 
	C1370.899048,462.298309 1363.561279,469.374451 1351.692505,469.753967 
	C1339.330688,470.149261 1330.765625,463.696014 1325.901855,452.793304 
	C1319.784790,439.080780 1320.570190,424.989746 1325.496826,410.649994 
z"/>
<path fill="#FCFCFC" opacity="1.000000" stroke="none" 
	d="
M1750.885498,446.956177 
	C1756.196655,441.755554 1762.877075,440.756439 1769.321411,439.220154 
	C1773.846069,438.141510 1778.409302,437.225189 1782.934692,436.149414 
	C1787.444702,435.077301 1791.928833,433.896729 1796.434326,432.761230 
	C1800.139893,458.606812 1787.497437,472.747070 1764.448853,472.769012 
	C1757.463013,472.775665 1751.906128,469.530151 1748.779541,463.068481 
	C1746.082764,457.495544 1746.621704,452.105469 1750.885498,446.956177 
z"/>
<path fill="#FDFDFD" opacity="1.000000" stroke="none" 
	d="
M934.407715,418.492981 
	C934.878235,420.668060 935.121094,422.056183 932.408691,422.042267 
	C915.308838,421.954407 898.208252,421.997742 881.108215,421.997742 
	C881.255066,401.412781 896.362793,388.662415 914.993591,393.000214 
	C925.635803,395.478027 932.379883,404.227509 934.407715,418.492981 
z"/>
<path fill="#FDFDFD" opacity="1.000000" stroke="none" 
	d="
M1517.706787,429.396118 
	C1519.388184,422.079620 1520.192383,414.865753 1522.815796,408.388641 
	C1526.774658,398.613892 1534.991699,393.725647 1545.497070,393.209473 
	C1556.606812,392.663635 1565.681030,397.031921 1570.682861,406.968414 
	C1579.023682,423.537262 1579.082520,440.675293 1570.541138,457.216644 
	C1565.533203,466.915161 1556.674561,471.233887 1545.752563,470.806183 
	C1535.204834,470.393066 1527.598999,465.281952 1522.727539,455.923492 
	C1518.450684,447.706940 1517.455444,438.893250 1517.706787,429.396118 
z"/>
</svg>