<?xml version="1.0" standalone="no"?>
<!DOCTYPE svg PUBLIC "-//W3C//DTD SVG 20010904//EN"
 "http://www.w3.org/TR/2001/REC-SVG-20010904/DTD/svg10.dtd">
<svg version="1.0" xmlns="http://www.w3.org/2000/svg"
 width="2084.000000pt" height="831.000000pt" viewBox="0 0 2084.000000 831.000000"
 preserveAspectRatio="xMidYMid meet">

<g transform="translate(0.000000,831.000000) scale(0.100000,-0.100000)"
fill="#000000" stroke="none">
<path d="M11135 5461 c-82 -37 -119 -113 -96 -194 10 -35 45 -75 200 -227 214
-211 240 -249 249 -371 2 -38 8 -68 12 -67 3 2 79 77 167 168 l160 165 -267
260 c-214 210 -274 263 -307 273 -53 16 -70 15 -118 -7z"/>
<path d="M12380 5389 c-31 -12 -280 -258 -321 -316 -80 -115 -68 -283 28 -374
l35 -34 225 230 c123 127 231 243 240 259 21 40 14 137 -13 174 -41 56 -133
85 -194 61z"/>
<path d="M11763 4777 c-90 -90 -163 -169 -163 -175 0 -16 518 -515 548 -529
122 -55 262 54 237 185 -6 31 -37 68 -200 232 -220 222 -244 258 -254 378 l-6
73 -162 -164z"/>
<path d="M11062 4630 c-128 -131 -239 -252 -247 -267 -8 -15 -15 -51 -15 -79
0 -122 132 -204 237 -146 52 28 332 326 355 378 24 55 28 142 10 205 -13 44
-76 139 -97 146 -5 1 -115 -105 -243 -237z"/>
</g>
</svg>
