<?xml version="1.0" standalone="no"?>
<!DOCTYPE svg PUBLIC "-//W3C//DTD SVG 20010904//EN"
 "http://www.w3.org/TR/2001/REC-SVG-20010904/DTD/svg10.dtd">
<svg version="1.0" xmlns="http://www.w3.org/2000/svg"
 width="2084.000000pt" height="831.000000pt" viewBox="0 0 2084.000000 831.000000"
 preserveAspectRatio="xMidYMid meet">

<g transform="translate(0.000000,831.000000) scale(0.100000,-0.100000)"
fill="#000000" stroke="none">
<path d="M6554 5041 c-57 -35 -64 -71 -64 -351 0 -138 -2 -250 -5 -250 -3 0
-24 16 -45 36 -99 91 -175 124 -310 131 -212 12 -374 -77 -462 -254 -56 -113
-71 -197 -66 -371 6 -171 31 -268 96 -368 96 -146 233 -224 397 -224 123 0
230 45 341 143 l54 49 0 -44 c0 -92 64 -153 153 -145 32 3 56 12 74 28 54 50
53 31 53 806 0 690 -1 720 -20 761 -14 31 -29 47 -54 57 -48 20 -105 19 -142
-4z m-292 -667 c66 -22 122 -75 158 -147 39 -81 54 -162 47 -267 -9 -149 -64
-253 -159 -305 -73 -41 -170 -42 -243 -4 -101 51 -154 156 -162 318 -7 122 6
191 50 274 64 123 185 174 309 131z"/>
<path d="M14400 5042 c-19 -11 -43 -36 -54 -58 -21 -38 -21 -52 -21 -759 0
-651 2 -723 17 -750 30 -55 63 -78 120 -82 62 -5 106 18 138 69 19 32 20 52
20 763 0 711 -1 731 -20 763 -41 68 -129 91 -200 54z"/>
<path d="M2695 5015 c-54 -19 -81 -53 -95 -118 -7 -37 -10 -254 -8 -703 3
-626 4 -650 23 -689 11 -22 36 -48 55 -60 34 -19 51 -20 440 -19 386 0 409 1
485 22 44 12 105 37 135 56 68 41 143 132 171 206 26 69 35 196 19 273 -23
114 -123 223 -249 272 l-49 19 57 36 c135 88 198 229 170 383 -31 177 -168
300 -362 326 -123 17 -742 14 -792 -4z m641 -235 c75 -14 113 -28 142 -54 78
-69 73 -216 -10 -293 -54 -51 -88 -57 -325 -61 l-223 -4 0 211 0 211 178 0
c98 0 205 -5 238 -10z m49 -651 c134 -25 202 -88 212 -196 13 -140 -58 -231
-205 -262 -30 -6 -146 -11 -262 -11 l-210 0 0 240 0 240 203 0 c112 0 230 -5
262 -11z"/>
<path d="M10061 4998 c-64 -43 -72 -69 -78 -252 l-6 -164 -49 -4 c-62 -6 -100
-34 -112 -81 -18 -69 38 -127 120 -127 l42 0 5 -367 c5 -393 10 -437 57 -506
49 -72 140 -107 281 -107 192 0 299 54 299 150 0 43 -15 67 -52 86 -28 15 -41
15 -115 4 -94 -15 -120 -9 -150 37 -16 24 -18 60 -21 365 l-4 338 64 0 c124 0
178 31 178 101 0 81 -42 109 -165 109 l-75 0 0 163 c0 134 -3 168 -18 196 -24
48 -62 73 -119 78 -39 4 -55 0 -82 -19z"/>
<path d="M11142 4857 c-43 -14 -99 -77 -108 -122 -15 -80 3 -106 206 -305 214
-211 239 -248 248 -371 2 -38 7 -68 11 -67 3 2 79 77 168 168 l161 165 -268
262 c-304 296 -315 303 -418 270z"/>
<path d="M12375 4776 c-41 -19 -317 -303 -338 -347 -9 -20 -22 -59 -28 -88
-19 -88 18 -198 86 -261 l27 -25 225 230 c123 127 231 244 239 262 18 41 18
104 0 147 -31 74 -139 116 -211 82z"/>
<path d="M4321 4592 c-71 -38 -71 -40 -71 -482 0 -433 4 -472 58 -560 33 -53
109 -114 172 -136 61 -21 183 -29 254 -15 88 16 155 51 228 120 l66 61 7 -47
c14 -93 63 -143 140 -143 52 0 84 17 112 59 l23 34 0 511 c0 476 -1 514 -18
545 -51 94 -194 93 -252 -1 -18 -31 -20 -52 -20 -278 -1 -302 -12 -437 -41
-496 -43 -89 -152 -151 -249 -142 -70 7 -114 39 -147 106 l-28 57 -5 355 c-5
333 -6 357 -26 394 -36 71 -130 97 -203 58z"/>
<path d="M7431 4594 c-175 -47 -305 -194 -347 -394 -20 -93 -14 -305 11 -395
55 -198 190 -337 363 -374 162 -34 308 6 424 117 l58 55 0 -74 c-1 -168 -30
-265 -95 -315 -67 -51 -220 -69 -326 -38 -45 13 -66 28 -131 95 -80 82 -108
99 -159 99 -110 0 -156 -122 -86 -226 60 -91 193 -159 359 -185 90 -14 298 -6
387 16 175 42 282 150 329 332 15 61 17 129 17 628 0 616 0 620 -59 656 -36
22 -108 25 -146 6 -41 -21 -70 -74 -70 -130 l0 -49 -64 60 c-103 96 -200 133
-345 131 -36 0 -90 -7 -120 -15z m314 -221 c106 -36 175 -143 195 -300 23
-180 -42 -338 -163 -399 -136 -69 -294 -19 -362 116 -52 102 -59 295 -16 411
58 153 198 223 346 172z"/>
<path d="M8965 4604 c-239 -37 -410 -202 -461 -444 -24 -113 -15 -291 20 -393
61 -179 177 -293 356 -349 63 -19 97 -23 215 -23 161 0 236 18 340 80 77 47
110 78 146 140 59 103 29 185 -70 185 -48 0 -53 -3 -137 -76 -100 -88 -170
-124 -253 -131 -164 -15 -303 106 -318 278 l-6 58 354 3 c331 3 357 4 393 23
55 28 78 64 84 127 13 161 -76 338 -215 431 -100 66 -175 89 -308 92 -60 2
-123 1 -140 -1z m181 -215 c93 -24 168 -121 189 -246 l7 -43 -272 0 -273 0 6
45 c10 69 43 137 90 183 67 66 152 86 253 61z"/>
<path d="M12981 4597 c-13 -6 -34 -25 -45 -40 -21 -28 -21 -36 -24 -740 -2
-392 0 -731 3 -755 10 -65 49 -103 112 -109 62 -6 111 15 138 60 18 29 20 55
23 300 l3 268 66 -62 c90 -83 165 -118 274 -126 257 -18 453 134 526 407 25
91 25 319 0 410 -53 199 -185 339 -364 385 -111 29 -250 12 -340 -41 -23 -13
-70 -50 -103 -80 l-60 -56 0 42 c0 55 -26 108 -64 131 -36 22 -109 25 -145 6z
m591 -219 c55 -16 132 -88 162 -152 76 -160 53 -401 -50 -515 -111 -123 -271
-120 -386 8 -70 77 -92 158 -85 308 6 143 22 195 84 263 80 90 173 119 275 88z"/>
<path d="M15307 4594 c-219 -49 -365 -191 -423 -414 -23 -87 -23 -272 0 -360
55 -216 215 -370 429 -414 147 -31 311 -13 437 46 87 42 195 150 238 238 50
102 66 180 66 310 0 182 -46 316 -147 426 -107 118 -240 174 -422 180 -74 3
-132 -1 -178 -12z m239 -219 c149 -44 234 -234 204 -457 -30 -231 -185 -350
-379 -292 -142 42 -226 227 -201 444 27 240 180 363 376 305z"/>
<path d="M16364 4591 c-17 -10 -39 -36 -50 -57 -18 -37 -19 -66 -19 -539 l0
-500 23 -36 c54 -88 184 -91 246 -6 20 27 21 47 28 315 8 375 29 479 108 545
51 43 131 47 232 11 55 -19 87 -18 126 6 42 26 66 80 57 129 -15 78 -145 151
-269 151 -100 0 -163 -36 -224 -127 l-36 -55 -11 54 c-6 29 -16 63 -23 75 -29
52 -129 70 -188 34z"/>
<path d="M17565 4595 c-185 -35 -306 -121 -341 -243 -31 -105 16 -172 120
-172 53 0 51 -1 138 110 27 33 62 64 93 80 44 22 62 25 155 25 83 0 113 -4
143 -19 45 -22 75 -75 84 -145 5 -48 5 -49 -28 -59 -60 -19 -190 -50 -362 -86
-234 -49 -314 -94 -375 -211 -22 -43 -26 -63 -27 -140 0 -79 3 -97 28 -147 56
-115 170 -185 318 -195 142 -10 275 30 413 125 l60 41 32 -47 c51 -75 96 -113
141 -119 77 -10 153 50 153 122 0 17 -10 62 -22 100 -19 62 -22 104 -28 375
-8 327 -14 369 -65 456 -48 82 -145 133 -289 153 -102 14 -254 12 -341 -4z
m385 -779 c-22 -105 -93 -178 -204 -211 -171 -51 -319 54 -277 196 19 64 69
92 229 129 75 18 164 40 197 49 l60 17 3 -64 c2 -36 -2 -88 -8 -116z"/>
<path d="M11757 4162 l-168 -169 269 -261 c149 -144 282 -266 297 -272 122
-46 254 61 230 188 -6 31 -37 68 -200 232 -219 222 -244 258 -254 378 l-6 72
-168 -168z"/>
<path d="M11062 4020 c-128 -131 -239 -252 -247 -267 -8 -15 -15 -51 -15 -79
0 -122 133 -204 237 -146 17 9 101 90 186 178 132 138 157 169 173 215 34 104
19 201 -44 284 -21 27 -42 50 -47 52 -6 2 -115 -105 -243 -237z"/>
</g>
</svg>
